<?xml version="1.0" encoding="UTF-8" standalone="no"?>
<svg xmlns:rdf="http://www.w3.org/1999/02/22-rdf-syntax-ns#" xmlns="http://www.w3.org/2000/svg" fill-rule="evenodd" xml:space="preserve" version="1.1" xmlns:cc="http://creativecommons.org/ns#" xmlns:dc="http://purl.org/dc/elements/1.1/" viewBox="0 0 100 100"><defs><style type="text/css">
    .fil0 {fill:#000000}
   </style></defs><g transform="matrix(0.03643591,0,0,0.03644315,-88.201407,-157.21575)"><path fill="#000" d="m4866,6842c-157,144-307,216-451,216-124,0-229-41-314-124-84-83-126-185-126-306,0-162,85-423,255-784l130-277c100-214,150-388,150-521,0-170-49-306-148-409-99-104-230-155-393-155-153,0-276,46-371,137-94,93-141,213-141,362,0,138,44,299,132,483l53,110c88,182,132,315,132,402,0,137-53,258-157,360s-228,153-370,153c-146,0-271-51-373-154-103-103-154-228-154-376,0-142,50-265,152-368,101-103,222-155,362-155,51,0,107,9,168,28-97-187-146-352-146-496,0-187,67-343,202-467,136-125,306-187,510-187,224,0,404,66,540,197,135,132,203,307,203,525,0,108-11,202-34,280-22,79-76,209-160,390l-93,203c-166,360-250,592-250,698,0,78,23,142,70,192,46,51,106,76,178,76,95,0,204-54,326-162l118,129zm-1996-881c0,106,36,196,107,269,71,72,158,109,262,109,102,0,188-37,260-110s108-162,108-266c0-106-36-195-107-268-72-72-159-109-263-109-102,0-188,37-260,110-71,73-107,161-107,265z"/></g></svg>
