<?xml version="1.0" encoding="UTF-8" standalone="no"?>
<svg xmlns:rdf="http://www.w3.org/1999/02/22-rdf-syntax-ns#" xmlns="http://www.w3.org/2000/svg" fill-rule="evenodd" xml:space="preserve" viewBox="0 0 100 100" version="1.1" xmlns:cc="http://creativecommons.org/ns#" xmlns:dc="http://purl.org/dc/elements/1.1/"><defs><style type="text/css">
    .fil0 {fill:#000000}
   </style></defs><g transform="matrix(0.03881675,0,0,0.03875969,-96.804949,-172.28682)"><path fill="#000" d="m3086,5231,0,1258-201,0,0-1457c0-202-55-386-165-550h212c75,103,126,236,154,397,68-167,147-299,236-397l197-37c90,116,147,270,171,462,46-145,128-287,245-425l194-37c109,151,163,318,163,501v382c54-153,112-274,172-360l166-61c143,221,214,454,214,698,0,194-43,375-128,545s-214,328-384,475c16,118,85,251,207,400h-236c-57-72-108-168-152-287-125,71-279,121-461,150v-172c172-35,312-86,422-151-14-87-21-174-21-262v-1220c0-199-28-349-86-451-142,153-247,369-315,646v1211h-202v-1338c0-249-30-422-88-519-139,162-243,361-314,599zm1206,1206c118-120,205-248,264-385,58-137,87-283,87-436,0-161-35-317-105-468-100,123-181,287-246,492v797z"/></g></svg>
