<?xml version="1.0" encoding="UTF-8" standalone="no"?>
<svg
   xmlns:dc="http://purl.org/dc/elements/1.1/"
   xmlns:cc="http://creativecommons.org/ns#"
   xmlns:rdf="http://www.w3.org/1999/02/22-rdf-syntax-ns#"
   xmlns:svg="http://www.w3.org/2000/svg"
   xmlns="http://www.w3.org/2000/svg"
   xmlns:sodipodi="http://sodipodi.sourceforge.net/DTD/sodipodi-0.dtd"
   xmlns:inkscape="http://www.inkscape.org/namespaces/inkscape"
   width="246.25"
   height="246.25"
   viewBox="0 0 8268 12251.723"
   id="svg2"
   version="1.1"
   inkscape:version="0.48.4 r9939"
   sodipodi:docname="Capricorn.svg">
  <metadata
     id="metadata12">
    <rdf:RDF>
      <cc:Work
         rdf:about="">
        <dc:format>image/svg+xml</dc:format>
        <dc:type
           rdf:resource="http://purl.org/dc/dcmitype/StillImage" />
      </cc:Work>
    </rdf:RDF>
  </metadata>
  <defs
     id="defs10" />
  <sodipodi:namedview
     pagecolor="#ffffff"
     bordercolor="#666666"
     borderopacity="1"
     objecttolerance="10"
     gridtolerance="10"
     guidetolerance="10"
     inkscape:pageopacity="0"
     inkscape:pageshadow="2"
     inkscape:window-width="640"
     inkscape:window-height="480"
     id="namedview8"
     showgrid="false"
     inkscape:zoom="1.0042553"
     inkscape:cx="123.125"
     inkscape:cy="117.5"
     inkscape:window-x="65"
     inkscape:window-y="24"
     inkscape:window-maximized="0"
     inkscape:current-layer="svg2" />
  <g
     transform="matrix(4.75426,0,0,4.752845,-14923.45,-20698.296)"
     id="g4">
    <path
       d="m 3212,5895 0,-70 c 0,-131 -23,-314 -68,-552 -46,-238 -88,-394 -127,-468 -55,-105 -141,-158 -259,-158 l -38,0 0,-165 150,0 c 141,0 238,55 292,165 64,133 122,353 175,661 76,-340 202,-615 380,-826 l 265,-51 c 65,147 119,368 162,663 l 37,245 c 12,86 20,147 24,183 16,147 37,258 61,333 129,-247 308,-371 536,-371 137,0 254,48 350,142 97,94 145,209 145,344 0,144 -49,268 -146,368 -98,101 -217,151 -357,151 -191,0 -358,-74 -501,-222 -102,268 -192,439 -270,513 -78,74 -206,111 -384,111 l -182,0 0,-167 85,0 c 172,0 290,-35 355,-105 64,-69 147,-251 247,-546 -45,-79 -75,-146 -89,-199 -14,-53 -32,-169 -54,-349 l -51,-384 c -33,-253 -72,-427 -117,-522 -114,135 -213,318 -296,549 -84,231 -125,437 -125,619 l 0,108 -200,0 z m 1126,202 c 145,161 293,242 441,242 100,0 184,-35 251,-105 67,-69 100,-157 100,-261 0,-93 -32,-173 -96,-239 -63,-65 -141,-98 -232,-98 -197,0 -352,154 -464,461 z"
       id="path6"
       inkscape:connector-curvature="0" />
  </g>
</svg>
