<?xml version="1.0" encoding="UTF-8" standalone="no"?>
<svg xmlns:rdf="http://www.w3.org/1999/02/22-rdf-syntax-ns#" xmlns="http://www.w3.org/2000/svg" fill-rule="evenodd" xml:space="preserve" version="1.1" xmlns:cc="http://creativecommons.org/ns#" xmlns:dc="http://purl.org/dc/elements/1.1/" viewBox="0 0 100 100"><defs><style type="text/css">
    .fil0 {fill:#000000}
   </style></defs><g transform="matrix(0.04016064,0,0,0.04010923,-109.23694,-170.03924)"><path fill="#000" d="m2720,6184,753-497,165,385,583-385,163,385,584-385,241,567-156,69-161-385-586,385-163-385-581,385-164-385-586,385-92-139zm1-1037,753-498,165,385,584-385,163,385,583-385,241,567-156,69-161-385-587,385-163-385-581,385-162-385-586,385-93-138z"/></g></svg>
