<?xml version="1.0" encoding="UTF-8" standalone="no"?>
<svg xmlns:rdf="http://www.w3.org/1999/02/22-rdf-syntax-ns#" xmlns="http://www.w3.org/2000/svg" fill-rule="evenodd" xml:space="preserve" version="1.1" xmlns:cc="http://creativecommons.org/ns#" xmlns:dc="http://purl.org/dc/elements/1.1/" viewBox="0 0 100 100"><defs><style type="text/css">
    .fil0 {fill:#000000}
   </style></defs><g transform="matrix(0.04745884,0,0,0.04746084,-119.3806,-210.34644)"><path fill="#000" d="m3362,5518c0,165-39,340-115,524-77,184-179,350-308,497h-219c295-311,442-651,442-1021h-427v-150h427c-18-322-165-634-442-936h207c254,271,399,583,435,936h414c37-353,182-665,435-936h207c-277,302-424,614-442,936h427v150h-427c0,370,147,710,442,1021h-218c-130-147-232-313-309-497-76-184-115-359-115-524h-414z"/></g></svg>
